<svg width="131" height="87" viewBox="0 0 131 87" fill="none" xmlns="http://www.w3.org/2000/svg">
<path d="M90.1259 -13C90.1259 13.2898 79.6823 38.5029 61.0926 57.0926C42.5029 75.6823 17.2898 86.1259 -9.00002 86.1259V-13L90.1259 -13Z" fill="#3EB2C3"/>
<path d="M120.993 36.5634H90.8117C85.5267 36.5634 81.2423 40.8478 81.2423 46.1329C81.2423 51.4179 85.5267 55.7023 90.8117 55.7023H120.993C126.278 55.7023 130.563 51.4179 130.563 46.1329C130.563 40.8478 126.278 36.5634 120.993 36.5634Z" fill="#E95900"/>
<path d="M63.9381 55.6899C69.168 55.6899 73.4077 51.4502 73.4077 46.2203C73.4077 40.9904 69.168 36.7507 63.9381 36.7507C58.7082 36.7507 54.4686 40.9904 54.4686 46.2203C54.4686 51.4502 58.7082 55.6899 63.9381 55.6899Z" fill="white"/>
</svg>
